<svg width="32" height="32" viewBox="0 0 32 32" fill="none" xmlns="http://www.w3.org/2000/svg">
<path d="M26.6667 9.33333H5.33334C3.86058 9.33333 2.66667 10.5272 2.66667 12V25.3333C2.66667 26.8061 3.86058 28 5.33334 28H26.6667C28.1394 28 29.3333 26.8061 29.3333 25.3333V12C29.3333 10.5272 28.1394 9.33333 26.6667 9.33333Z" stroke="white" stroke-width="2" stroke-linecap="round" stroke-linejoin="round"/>
<path d="M21.3333 28V6.66667C21.3333 5.95942 21.0524 5.28115 20.5523 4.78105C20.0522 4.28095 19.3739 4 18.6667 4H13.3333C12.6261 4 11.9478 4.28095 11.4477 4.78105C10.9476 5.28115 10.6667 5.95942 10.6667 6.66667V28" stroke="white" stroke-width="2" stroke-linecap="round" stroke-linejoin="round"/>
</svg>
