<svg width="32" height="32" viewBox="0 0 32 32" fill="none" xmlns="http://www.w3.org/2000/svg">
<path d="M30.6667 4C29.3898 4.90063 27.9761 5.58947 26.48 6.04C25.677 5.11668 24.6098 4.46225 23.4227 4.16523C22.2356 3.86821 20.986 3.94292 19.8428 4.37927C18.6996 4.81561 17.7179 5.59253 17.0306 6.60495C16.3434 7.61737 15.9836 8.81644 16 10.04V11.3733C13.6568 11.4341 11.335 10.9144 9.24134 9.86059C7.14766 8.80677 5.34709 7.25151 4 5.33333C4 5.33333 -1.33333 17.3333 10.6667 22.6667C7.9207 24.5306 4.64954 25.4652 1.33333 25.3333C13.3333 32 28 25.3333 28 10C27.9988 9.6286 27.9631 9.25812 27.8933 8.89333C29.2541 7.55132 30.2144 5.85695 30.6667 4Z" stroke="white" stroke-width="2" stroke-linecap="round" stroke-linejoin="round"/>
</svg>
